<svg version="1.1" id="Layer_1" xmlns="http://www.w3.org/2000/svg" xmlns:xlink="http://www.w3.org/1999/xlink" x="0px" y="0px"
	 viewBox="0 0 427.3 30" style="enable-background:new 0 0 427.3 30;" xml:space="preserve">
<g id="sc-logo-title">
	<g id="Layer_1-2">
		<path d="M0,24v-3.9h7v3c0,0.6,0.2,0.8,0.8,0.8h6.8c0.6,0,0.8-0.2,0.8-0.8V20c0-0.7-0.3-0.9-1.2-1.1l-8-1.9c-4-1-6.2-2.1-6.2-6.2
			V5.9C0.1,1.9,2,0,6,0h10.1c4,0,5.9,1.9,5.9,5.9v3.6h-7V6.8C15,6.2,14.8,6,14.2,6H8C7.4,6,7.2,6.2,7.2,6.8v2.8
			c0,0.7,0.3,0.9,1.2,1.1l8,1.9c4,1,6.2,2.1,6.2,6.2v5.3c0,4-1.9,5.9-5.9,5.9H5.9C1.9,30,0,28,0,24z"/>
		<path d="M53.8,0H61v30h-7.1L53.8,0z"/>
		<path d="M93.2,0h17.1c4,0,5.9,1.9,5.9,5.9V24c0,4-1.9,5.9-5.9,5.9H93.2V0z M108.3,23.8c0.6,0,0.8-0.2,0.8-0.8V7
			c0-0.6-0.2-0.8-0.8-0.8h-8v17.6H108.3z"/>
		<path d="M147.9,0h20.6v6.2H155v5.4h10.8v6.1H155v6.1h13.5V30h-20.6V0z"/>
		<path d="M198.7,24V5.9c0-4,2-5.9,5.9-5.9h10.7c4,0,5.9,1.9,5.9,5.9v5.2h-7.1V7c0-0.6-0.2-0.8-0.8-0.8h-6.7c-0.6,0-0.8,0.2-0.8,0.8
			v16c0,0.6,0.2,0.8,0.8,0.8h6.7c0.6,0,0.8-0.2,0.8-0.8v-4.2h7.1v5.3c0,4-1.9,5.9-5.9,5.9h-10.7C200.6,30,198.7,28,198.7,24z"/>
		<path d="M252.2,0h7.1v11.5h9.6V0h7.1v30h-7.1V17.8h-9.6V30h-7.1L252.2,0z"/>
		<path d="M324.3,23.6h-9.5L313,30h-7.4l9.1-30h9.8l9.1,30H326L324.3,23.6z M322.7,17.6l-3.1-11.8l-3.2,11.7L322.7,17.6z"/>
		<path d="M363.3,0h7.1v30h-7.1V0z"/>
		<path d="M402.6,0h7.2l10.6,17.6V0h6.9v30h-6.6l-11.2-18.6V30h-6.9L402.6,0z"/>
	</g>
</g>
</svg>
