<svg xmlns="http://www.w3.org/2000/svg" xmlns:xlink="http://www.w3.org/1999/xlink" viewBox="0 0 1516.48 492.04"><defs><style>.cls-1{fill:url(#linear-gradient);}.cls-2{fill:url(#linear-gradient-2);}.cls-3{fill:url(#linear-gradient-3);}.cls-4{fill:url(#linear-gradient-4);}.cls-5{fill:url(#linear-gradient-5);}.cls-6{fill:url(#linear-gradient-6);}.cls-7{fill:url(#linear-gradient-7);}.cls-8{fill:url(#linear-gradient-8);}.cls-9{fill:url(#linear-gradient-9);}.cls-10{fill:url(#linear-gradient-10);}.cls-11{fill:url(#linear-gradient-11);}.cls-12{fill:url(#linear-gradient-12);}</style><linearGradient id="linear-gradient" x1="70.39" y1="-11.98" x2="255.95" y2="774.77" gradientUnits="userSpaceOnUse"><stop offset="0"/><stop offset="0.95" stop-opacity="0.1"/><stop offset="1" stop-opacity="0"/></linearGradient><linearGradient id="linear-gradient-2" x1="215.96" y1="-46.32" x2="401.52" y2="740.44" xlink:href="#linear-gradient"/><linearGradient id="linear-gradient-3" x1="184.22" y1="-38.83" x2="369.77" y2="747.92" xlink:href="#linear-gradient"/><linearGradient id="linear-gradient-4" x1="296.64" y1="-65.34" x2="482.2" y2="721.41" xlink:href="#linear-gradient"/><linearGradient id="linear-gradient-5" x1="463.2" y1="-104.62" x2="648.75" y2="682.13" xlink:href="#linear-gradient"/><linearGradient id="linear-gradient-6" x1="635.92" y1="-145.36" x2="821.47" y2="641.39" xlink:href="#linear-gradient"/><linearGradient id="linear-gradient-7" x1="1019.75" y1="-235.89" x2="1205.31" y2="550.86" xlink:href="#linear-gradient"/><linearGradient id="linear-gradient-8" x1="1188.82" y1="-275.76" x2="1374.38" y2="510.99" xlink:href="#linear-gradient"/><linearGradient id="linear-gradient-9" x1="1345.08" y1="-312.62" x2="1530.64" y2="474.14" xlink:href="#linear-gradient"/><linearGradient id="linear-gradient-10" x1="804.83" y1="-185.2" x2="990.38" y2="601.55" xlink:href="#linear-gradient"/><linearGradient id="linear-gradient-11" x1="954.39" y1="-220.47" x2="1139.95" y2="566.28" xlink:href="#linear-gradient"/><linearGradient id="linear-gradient-12" x1="1175.81" y1="-272.69" x2="1361.37" y2="514.06" xlink:href="#linear-gradient"/></defs><title>Asset 1</title><g id="Layer_2" data-name="Layer 2"><g id="Layer_1-2" data-name="Layer 1"><path class="cls-1" d="M137.44,93.06h-.72a54.59,54.59,0,0,0-23.44-20.58A72.78,72.78,0,0,0,82,65.5q-20.4,0-35.79,8.05a76.78,76.78,0,0,0-25.59,21.3,93.45,93.45,0,0,0-15.39,30.6,124.88,124.88,0,0,0-5.19,36,132.9,132.9,0,0,0,5.19,37.22,98.92,98.92,0,0,0,15.39,31.68,73.27,73.27,0,0,0,25.95,21.83q15.75,8.05,36.51,8.05,18.25,0,32.75-6.62t23.44-21.65h.72v23.62h48.32V0H137.44Zm-.36,91.63a60.16,60.16,0,0,1-7.16,19.15,38.08,38.08,0,0,1-13.42,13.42q-8.41,5-20.94,5-11.81,0-20.22-5.19a44.54,44.54,0,0,1-14-13.6,58.45,58.45,0,0,1-8.05-19.15,94.09,94.09,0,0,1-2.5-21.48,101.87,101.87,0,0,1,2.33-22,58.52,58.52,0,0,1,7.52-18.79,39.64,39.64,0,0,1,13.78-13.24q8.59-5,21.12-5t20.76,5a41.36,41.36,0,0,1,13.42,13.06,53.91,53.91,0,0,1,7.34,18.61,110.36,110.36,0,0,1,2.15,22A113,113,0,0,1,137.09,184.69Z"/><rect class="cls-2" x="206.41" width="50.83" height="41.88"/><rect class="cls-3" x="206.41" y="70.51" width="50.83" height="185.05"/><path class="cls-4" d="M420.09,159.82a71.41,71.41,0,0,0-18.79-9.49,217.15,217.15,0,0,0-21.66-6.08q-10.74-2.5-21.12-4.65a163.3,163.3,0,0,1-18.43-4.83,38.59,38.59,0,0,1-13.06-7,13.92,13.92,0,0,1-5-11.1q0-5.72,2.86-9.13a18.84,18.84,0,0,1,7-5.19A31.1,31.1,0,0,1,341,100a87.94,87.94,0,0,1,9.31-.54q13.6,0,23.62,5.19T385,124.56h48.32q-1.44-17.18-8.77-28.45A58,58,0,0,0,406.14,78a77.39,77.39,0,0,0-25.23-9.66,146.9,146.9,0,0,0-29.17-2.86,159,159,0,0,0-29.35,2.68,80.82,80.82,0,0,0-25.77,9.31,51.45,51.45,0,0,0-18.43,18.07q-7,11.46-7,29.35,0,12.17,5,20.58a43.42,43.42,0,0,0,13.24,14,73.68,73.68,0,0,0,18.79,8.95q10.55,3.41,21.66,5.91,27.2,5.73,42.41,11.45t15.21,17.18a18.81,18.81,0,0,1-3.22,11.28,24.37,24.37,0,0,1-8.05,7.16,38.31,38.31,0,0,1-10.74,3.94,54.05,54.05,0,0,1-11.28,1.25,57.94,57.94,0,0,1-14.5-1.79,37.53,37.53,0,0,1-12.35-5.55,29.67,29.67,0,0,1-8.77-9.66,27.83,27.83,0,0,1-3.4-14.14H266.9q.71,18.62,8.41,31A61.38,61.38,0,0,0,295,246.26,83.14,83.14,0,0,0,322.38,257a153.28,153.28,0,0,0,31.5,3.22,157.74,157.74,0,0,0,31-3,78.41,78.41,0,0,0,27-10.56A58.73,58.73,0,0,0,431,226.75q7.33-12.35,7.34-30.6,0-12.89-5-21.66A46,46,0,0,0,420.09,159.82Z"/><path class="cls-5" d="M613.09,214.4V118.12q0-16.82-7.52-27a51.5,51.5,0,0,0-19.33-15.93,86.78,86.78,0,0,0-26.13-7.7,208.17,208.17,0,0,0-28.28-2,155.84,155.84,0,0,0-30.6,3,87.36,87.36,0,0,0-27.38,10.2,60.93,60.93,0,0,0-20,19q-7.88,11.81-8.95,29.71h50.83q1.43-15,10-21.48t23.62-6.44a85.38,85.38,0,0,1,12.71.9A28.21,28.21,0,0,1,552.42,104a19.77,19.77,0,0,1,7.16,7.52q2.68,4.83,2.68,13.06.35,7.88-4.65,12T544,142.82A135.9,135.9,0,0,1,524.32,146q-11.1,1.07-22.55,2.86A214.91,214.91,0,0,0,479,153.73a64.19,64.19,0,0,0-20,9.13,46.38,46.38,0,0,0-14.32,16.28q-5.55,10.2-5.55,26,0,14.32,4.83,24.7A46.63,46.63,0,0,0,457.39,247a56.52,56.52,0,0,0,20,10,90.86,90.86,0,0,0,24.7,3.22,115.05,115.05,0,0,0,33.64-5,66.19,66.19,0,0,0,28.63-17.54,74.85,74.85,0,0,0,1.25,9.13,71.4,71.4,0,0,0,2.33,8.77h51.54q-3.58-5.72-5-17.18A192.87,192.87,0,0,1,613.09,214.4ZM562.26,184a97.69,97.69,0,0,1-.89,11.45,38.37,38.37,0,0,1-4.83,14.14,33.55,33.55,0,0,1-12.17,12q-8.24,5-23.27,5a63.9,63.9,0,0,1-11.81-1.08,28.67,28.67,0,0,1-10-3.76,19.15,19.15,0,0,1-6.8-7.34A23.87,23.87,0,0,1,490,202.95a24.74,24.74,0,0,1,2.51-11.81,23,23,0,0,1,6.62-7.7,33.4,33.4,0,0,1,9.66-4.83A91.9,91.9,0,0,1,520,175.74q6.08-1.07,12.17-1.79t11.63-1.79a82.6,82.6,0,0,0,10.38-2.68,22.76,22.76,0,0,0,8.05-4.47Z"/><path class="cls-6" d="M799.17,95.57A77.72,77.72,0,0,0,773,73.73q-15.75-8.23-37.58-8.23A72.51,72.51,0,0,0,704,72.3q-14.32,6.8-23.62,21.83h-.72V70.51H631.3V320.35h50.83V232.65h.72a59.93,59.93,0,0,0,23.8,20.58,72,72,0,0,0,31.68,7q20.4,0,35.61-7.87a75.34,75.34,0,0,0,25.41-21.12,91.16,91.16,0,0,0,15.21-30.42,127.21,127.21,0,0,0,5-35.79,140.8,140.8,0,0,0-5-37.76A92.41,92.41,0,0,0,799.17,95.57ZM766.6,185.41a53.9,53.9,0,0,1-7.34,18.79,40.78,40.78,0,0,1-13.6,13.07q-8.41,5-20.94,5-12.17,0-20.76-5a40.18,40.18,0,0,1-13.78-13.07,56.37,56.37,0,0,1-7.52-18.79,102.62,102.62,0,0,1-2.33-21.83,112.87,112.87,0,0,1,2.15-22.19,55.65,55.65,0,0,1,7.34-19A41.75,41.75,0,0,1,703.42,109q8.41-5.18,20.94-5.19,12.16,0,20.58,5.19a43,43,0,0,1,13.78,13.6,58.21,58.21,0,0,1,7.7,19.15,102.9,102.9,0,0,1,2.33,21.83A111,111,0,0,1,766.6,185.41Z"/><path class="cls-7" d="M1047.21,233.37a81.83,81.83,0,0,0,29.71,19.86q17.53,7,39.37,7,31.49,0,53.69-14.32t32.93-47.6h-44.74q-2.51,8.59-13.6,16.28t-26.49,7.7q-21.47,0-32.93-11.09t-12.53-35.79h133.51a130.85,130.85,0,0,0-3.58-41.16,100.87,100.87,0,0,0-16.29-35.08,82.23,82.23,0,0,0-28.81-24.52q-17.54-9.13-41.16-9.13A95.81,95.81,0,0,0,1077.81,73a89.46,89.46,0,0,0-49.21,51.54,107.9,107.9,0,0,0-6.8,38.66,112.58,112.58,0,0,0,6.62,39.37A89.37,89.37,0,0,0,1047.21,233.37ZM1074.95,131a37.33,37.33,0,0,1,6.8-12.89,38.53,38.53,0,0,1,12.89-10.2q8.05-4.11,20.22-4.12,18.61,0,27.74,10t12.7,29.35h-82.68A57.92,57.92,0,0,1,1074.95,131Z"/><path class="cls-8" d="M1323.6,136.55q-5,4.12-13.6,6.27a135.9,135.9,0,0,1-19.69,3.22q-11.1,1.07-22.55,2.86a214.91,214.91,0,0,0-22.73,4.83,64.19,64.19,0,0,0-20,9.13,46.38,46.38,0,0,0-14.32,16.28q-5.55,10.2-5.55,26,0,14.32,4.83,24.7A46.63,46.63,0,0,0,1223.38,247a56.53,56.53,0,0,0,20,10,90.86,90.86,0,0,0,24.7,3.22,115.05,115.05,0,0,0,33.64-5,66.2,66.2,0,0,0,28.63-17.54,74.85,74.85,0,0,0,1.25,9.13,71.42,71.42,0,0,0,2.33,8.77h51.54q-3.58-5.72-5-17.18a192.9,192.9,0,0,1-1.43-24V118.12q0-16.82-7.52-27a51.5,51.5,0,0,0-19.33-15.93,86.77,86.77,0,0,0-26.13-7.7,208.17,208.17,0,0,0-28.28-2,155.84,155.84,0,0,0-30.6,3,87.36,87.36,0,0,0-27.38,10.2,60.93,60.93,0,0,0-20,19q-7.88,11.81-8.95,29.71h50.83q1.43-15,10-21.48t23.62-6.44a85.38,85.38,0,0,1,12.71.9,28.21,28.21,0,0,1,10.38,3.58,19.77,19.77,0,0,1,7.16,7.52q2.68,4.83,2.68,13.06Q1328.6,132.44,1323.6,136.55Zm4.65,47.43a97.69,97.69,0,0,1-.89,11.45,38.37,38.37,0,0,1-4.83,14.14,33.55,33.55,0,0,1-12.17,12q-8.24,5-23.27,5a63.9,63.9,0,0,1-11.81-1.08,28.68,28.68,0,0,1-10-3.76,19.15,19.15,0,0,1-6.8-7.34,23.87,23.87,0,0,1-2.5-11.45,24.75,24.75,0,0,1,2.5-11.81,23,23,0,0,1,6.62-7.7,33.4,33.4,0,0,1,9.66-4.83,91.87,91.87,0,0,1,11.28-2.86q6.08-1.07,12.17-1.79t11.63-1.79a82.6,82.6,0,0,0,10.38-2.68,22.76,22.76,0,0,0,8.05-4.47Z"/><path class="cls-9" d="M1486.77,68.36a68.44,68.44,0,0,0-16.82,8.05,63.31,63.31,0,0,0-14,12.53,62.3,62.3,0,0,0-9.66,15.93h-.72V70.51h-48.32v185h50.83v-83.4a102.16,102.16,0,0,1,2.51-23.26,50.89,50.89,0,0,1,8.41-18.79,40.94,40.94,0,0,1,15.57-12.71q9.67-4.65,23.62-4.65a90.63,90.63,0,0,1,9.66.54q5,.54,8.59,1.25V67.29a39.71,39.71,0,0,0-11.09-1.79A60.79,60.79,0,0,0,1486.77,68.36Z"/><path class="cls-10" d="M989.3,318.26q-7.51-9.84-20.58-15.39t-33.47-5.55q-14.32,0-29.35,7.34t-24.7,23.44h-1.08V232.65h.72a59.92,59.92,0,0,0,23.8,20.58,72,72,0,0,0,31.68,7q20.4,0,35.61-7.87a75.34,75.34,0,0,0,25.41-21.12,91.16,91.16,0,0,0,15.21-30.42,127.22,127.22,0,0,0,5-35.79,140.8,140.8,0,0,0-5-37.76,92.41,92.41,0,0,0-15.39-31.68A77.72,77.72,0,0,0,971,73.73q-15.75-8.23-37.58-8.23A72.51,72.51,0,0,0,902,72.3q-14.32,6.8-23.62,21.83h-.72V70.51H829.3V487.38h50.83v-97q0-28.27,9.31-40.62t30.06-12.35q18.25,0,25.41,11.27t7.16,34.18V487.38h50.83V373.56a149.47,149.47,0,0,0-3-31.32A59.61,59.61,0,0,0,989.3,318.26Zm-111-154.69a112.88,112.88,0,0,1,2.15-22.19,55.66,55.66,0,0,1,7.34-19A41.75,41.75,0,0,1,901.43,109q8.41-5.18,20.94-5.19,12.16,0,20.58,5.19a43,43,0,0,1,13.78,13.6,58.21,58.21,0,0,1,7.7,19.15,102.9,102.9,0,0,1,2.33,21.83,111,111,0,0,1-2.15,21.83,53.9,53.9,0,0,1-7.34,18.79,40.78,40.78,0,0,1-13.6,13.07q-8.41,5-20.94,5-12.17,0-20.76-5a40.18,40.18,0,0,1-13.78-13.07,56.37,56.37,0,0,1-7.52-18.79A102.61,102.61,0,0,1,878.34,163.57Z"/><path class="cls-11" d="M1171.94,331a82.23,82.23,0,0,0-28.81-24.52q-17.54-9.13-41.16-9.13a95.81,95.81,0,0,0-38.48,7.52,89.46,89.46,0,0,0-49.21,51.54,107.9,107.9,0,0,0-6.8,38.66,112.58,112.58,0,0,0,6.62,39.37,89.36,89.36,0,0,0,18.79,30.78,81.83,81.83,0,0,0,29.71,19.86q17.53,7,39.37,7,31.49,0,53.69-14.32t32.93-47.6h-44.74q-2.51,8.59-13.6,16.28t-26.49,7.7q-21.47,0-32.93-11.09t-12.53-35.79h133.51a130.86,130.86,0,0,0-3.58-41.16A100.87,100.87,0,0,0,1171.94,331ZM1058.3,375a57.9,57.9,0,0,1,2.33-12.17,37.33,37.33,0,0,1,6.8-12.89,38.53,38.53,0,0,1,12.89-10.2q8.05-4.11,20.22-4.12,18.61,0,27.74,10T1141,375Z"/><path class="cls-12" d="M1468.27,331a82.23,82.23,0,0,0-28.81-24.52q-17.54-9.13-41.16-9.13a95.81,95.81,0,0,0-38.48,7.52,90.92,90.92,0,0,0-29.89,20.58,88.1,88.1,0,0,0-13.78,18.89v-45.2a39.71,39.71,0,0,0-11.09-1.79,60.79,60.79,0,0,0-18.61,2.86,68.45,68.45,0,0,0-16.82,8.05,63.32,63.32,0,0,0-14,12.53A62.3,62.3,0,0,0,1246,336.7h-.72V302.33H1197v185h50.83V404a102.16,102.16,0,0,1,2.51-23.26,50.89,50.89,0,0,1,8.41-18.79,40.94,40.94,0,0,1,15.57-12.71q9.67-4.65,23.62-4.65a90.63,90.63,0,0,1,9.66.54c2.91.31,5.43.67,7.61,1.07a97.88,97.88,0,0,0-4.57,10.2,107.9,107.9,0,0,0-6.8,38.66,112.58,112.58,0,0,0,6.62,39.37,89.37,89.37,0,0,0,18.79,30.78,81.83,81.83,0,0,0,29.71,19.86q17.53,7,39.37,7,31.49,0,53.69-14.32t32.93-47.6h-44.74q-2.51,8.59-13.6,16.28t-26.49,7.7q-21.47,0-32.93-11.09t-12.53-35.79h133.51a130.86,130.86,0,0,0-3.58-41.16A100.87,100.87,0,0,0,1468.27,331Zm-113.64,44a57.9,57.9,0,0,1,2.33-12.17,37.33,37.33,0,0,1,6.8-12.89,38.53,38.53,0,0,1,12.89-10.2q8.05-4.11,20.22-4.12,18.61,0,27.74,10T1437.31,375Z"/></g></g></svg>