<?xml version="1.0" encoding="utf-8"?>
<!-- Generator: Adobe Illustrator 21.0.2, SVG Export Plug-In . SVG Version: 6.00 Build 0)  -->
<svg version="1.1" id="Layer_1" xmlns="http://www.w3.org/2000/svg" xmlns:xlink="http://www.w3.org/1999/xlink" x="0px" y="0px"
	 viewBox="0 0 1200 500" style="enable-background:new 0 0 1200 500;" xml:space="preserve">
<style type="text/css">
	.st0{fill:#FFFFFF;}
</style>
<path class="st0" d="M1158.8,36.1l8.8-6.4l-0.2-0.1c-2.1-0.6-4.3-0.8-6.4-0.7h-93.6c-10.8-0.2-19.7,8.4-19.8,19.2c0,0.2,0,0.3,0,0.5
	v35.9c-0.1,9.8,7.3,18.3,17,19.8l0,0l-8.8,6.4c0.8,0.1,1.6,0.2,2.4,0.2h93.5c11.1,0.1,20.2-8.8,20.4-19.9v0v-36
	C1172.1,46.7,1166.8,39.2,1158.8,36.1z M1153.6,91.2c0,1-0.9,1.5-1.9,1.5h-70.8l4.5-3.2l4.4-3.2l0,0h-22.4c-1,0-2.3-0.4-2.3-1.5v-36
	c0.2-1.2,1.1-2.1,2.3-2.2h77l0,0l-8.9,6.4h16.1c1.1,0.2,1.9,1.1,1.9,2.3L1153.6,91.2L1153.6,91.2z"/>
</svg>
